<?xml version="1.0" encoding="utf-8"?>
<!-- Svg Vector Icons : http://www.onlinewebfonts.com/icon -->
<!DOCTYPE svg PUBLIC "-//W3C//DTD SVG 1.1//EN" "http://www.w3.org/Graphics/SVG/1.1/DTD/svg11.dtd">
<svg version="1.1" xmlns="http://www.w3.org/2000/svg" xmlns:xlink="http://www.w3.org/1999/xlink" x="0px" y="0px" viewBox="0 0 1000 1000" enable-background="new 0 0 1000 1000" xml:space="preserve">
<metadata> Svg Vector Icons : http://www.onlinewebfonts.com/icon </metadata>
<g><g transform="translate(0.000000,512.000000) scale(0.100000,-0.100000)"><path d="M4696.5,4999.2c-744.6-84.2-1374.3-375.2-1856.7-859.4c-367.5-367.5-608.7-792.4-756.1-1326.5c-74.6-277.5-59.3-411.5,63.2-514.9c72.7-59.3,80.4-61.3,677.6-118.7c692.9-68.9,729.2-53.6,847.9,363.7c132.1,449.8,409.6,800.1,779,974.3c187.6,90,361.8,124.4,625.9,124.4c264.1,0,409.6-32.5,633.6-137.8c134-63.2,191.4-107.2,325.4-243.1c465.1-467,530.2-1138.9,168.4-1715c-141.6-224-268-361.8-941.7-1033.6c-759.9-756-792.4-794.3-909.2-1100.6c-103.4-266.1-120.6-388.6-130.2-930.3c-9.6-472.8-7.6-503.4,28.7-574.2c21.1-40.2,63.2-97.6,93.8-126.3c107.2-101.4,157-111,637.4-111c480.4,0,530.2,9.6,637.4,111c107.2,101.4,114.8,135.9,130.2,558.9c26.8,704.4,21,694.8,792.4,1473.8c329.2,331.1,662.3,673.8,742.7,758c313.9,335,547.4,794.3,639.3,1246.1c47.9,239.3,47.9,865.2,0,1104.4c-107.2,532.1-317.7,932.2-681.4,1293.9c-298.6,296.7-618.2,493.8-1031.7,631.7C5768.4,4997.3,5188.5,5054.7,4696.5,4999.2z"/><path d="M4700.4-3149c-382.8-135.9-620.2-526.4-558.9-916.9c51.7-333,317.7-618.2,648.9-694.8c446-103.4,920.7,220.1,1001.1,683.3c61.3,361.7-135.9,731.2-476.6,892c-114.8,53.6-153.1,61.3-321.6,65.1C4843.9-3114.6,4778.8-3122.2,4700.4-3149z"/></g></g>
</svg>